{
  "version": "1.1.6",
  "modules": [
    {
      "id": 41,
      "plugin": "Core",
      "version": "1.1.6",
      "model": "AudioInterface",
      "params": [],
      "leftModuleId": 80,
      "data": {
        "audio": {
          "driver": 5,
          "deviceName": "Apple Inc.: MacBook Air Speakers",
          "offset": 0,
          "maxChannels": 8,
          "sampleRate": 48000,
          "blockSize": 256
        }
      },
      "pos": [
        88,
        0
      ]
    },
    {
      "id": 42,
      "plugin": "Fundamental",
      "version": "1.4.0",
      "model": "VCMixer",
      "params": [
        {
          "id": 0,
          "value": 1.0
        },
        {
          "id": 1,
          "value": 1.0
        },
        {
          "id": 2,
          "value": 1.0
        },
        {
          "id": 3,
          "value": 1.0
        },
        {
          "id": 4,
          "value": 1.0
        }
      ],
      "leftModuleId": 45,
      "rightModuleId": 47,
      "pos": [
        65,
        0
      ]
    },
    {
      "id": 43,
      "plugin": "Fundamental",
      "version": "1.4.0",
      "model": "VCO",
      "params": [
        {
          "id": 0,
          "value": 1.0
        },
        {
          "id": 1,
          "value": 1.0
        },
        {
          "id": 2,
          "value": -14.9999914
        },
        {
          "id": 3,
          "value": 0.0
        },
        {
          "id": 4,
          "value": 0.0
        },
        {
          "id": 5,
          "value": 0.5
        },
        {
          "id": 6,
          "value": 0.0
        }
      ],
      "rightModuleId": 44,
      "pos": [
        0,
        0
      ]
    },
    {
      "id": 44,
      "plugin": "Fundamental",
      "version": "1.4.0",
      "model": "VCO",
      "params": [
        {
          "id": 0,
          "value": 1.0
        },
        {
          "id": 1,
          "value": 1.0
        },
        {
          "id": 2,
          "value": -3.00000095
        },
        {
          "id": 3,
          "value": 0.179999828
        },
        {
          "id": 4,
          "value": 0.0
        },
        {
          "id": 5,
          "value": 0.5
        },
        {
          "id": 6,
          "value": 0.0
        }
      ],
      "leftModuleId": 43,
      "rightModuleId": 48,
      "pos": [
        10,
        0
      ]
    },
    {
      "id": 45,
      "plugin": "Fundamental",
      "version": "1.4.0",
      "model": "VCF",
      "params": [
        {
          "id": 0,
          "value": 0.0
        },
        {
          "id": 1,
          "value": 0.5
        },
        {
          "id": 2,
          "value": 0.0
        },
        {
          "id": 3,
          "value": 1.0
        },
        {
          "id": 4,
          "value": 0.0
        }
      ],
      "leftModuleId": 46,
      "rightModuleId": 42,
      "pos": [
        57,
        0
      ]
    },
    {
      "id": 46,
      "plugin": "Fundamental",
      "version": "1.4.0",
      "model": "ADSR",
      "params": [
        {
          "id": 0,
          "value": 0.0
        },
        {
          "id": 1,
          "value": 0.602000177
        },
        {
          "id": 2,
          "value": 0.5
        },
        {
          "id": 3,
          "value": 0.601000071
        }
      ],
      "leftModuleId": 50,
      "rightModuleId": 45,
      "pos": [
        49,
        0
      ]
    },
    {
      "id": 47,
      "plugin": "Fundamental",
      "version": "1.4.0",
      "model": "VCA-1",
      "params": [
        {
          "id": 0,
          "value": 0.0500000007
        },
        {
          "id": 1,
          "value": 1.0
        }
      ],
      "leftModuleId": 42,
      "pos": [
        75,
        0
      ]
    },
    {
      "id": 48,
      "plugin": "Fundamental",
      "version": "1.4.0",
      "model": "LFO",
      "params": [
        {
          "id": 0,
          "value": 1.0
        },
        {
          "id": 1,
          "value": 1.0
        },
        {
          "id": 2,
          "value": 1.0
        },
        {
          "id": 3,
          "value": 0.0
        },
        {
          "id": 4,
          "value": 0.0
        },
        {
          "id": 5,
          "value": 0.99000001
        },
        {
          "id": 6,
          "value": 0.0
        }
      ],
      "leftModuleId": 44,
      "rightModuleId": 49,
      "pos": [
        20,
        0
      ]
    },
    {
      "id": 49,
      "plugin": "Fundamental",
      "version": "1.4.0",
      "model": "Random",
      "params": [
        {
          "id": 0,
          "value": -7.53071213
        },
        {
          "id": 1,
          "value": 0.0
        },
        {
          "id": 2,
          "value": 1.0
        },
        {
          "id": 3,
          "value": 1.0
        }
      ],
      "leftModuleId": 48,
      "rightModuleId": 51,
      "pos": [
        30,
        0
      ]
    },
    {
      "id": 50,
      "plugin": "Fundamental",
      "version": "1.4.0",
      "model": "Quantizer",
      "params": [],
      "leftModuleId": 79,
      "rightModuleId": 46,
      "data": {
        "enabledNotes": [
          false,
          false,
          false,
          false,
          false,
          false,
          true,
          false,
          false,
          true,
          false,
          true
        ]
      },
      "pos": [
        46,
        0
      ]
    },
    {
      "id": 51,
      "plugin": "Fundamental",
      "version": "1.4.0",
      "model": "8vert",
      "params": [
        {
          "id": 0,
          "value": 0.143999994
        },
        {
          "id": 1,
          "value": 0.0
        },
        {
          "id": 2,
          "value": 0.0
        },
        {
          "id": 3,
          "value": 0.0
        },
        {
          "id": 4,
          "value": 0.0
        },
        {
          "id": 5,
          "value": 0.0
        },
        {
          "id": 6,
          "value": 0.0
        },
        {
          "id": 7,
          "value": 0.0
        }
      ],
      "leftModuleId": 49,
      "rightModuleId": 79,
      "pos": [
        35,
        0
      ]
    },
    {
      "id": 68,
      "plugin": "Fundamental",
      "version": "1.4.0",
      "model": "VCA-1",
      "params": [
        {
          "id": 0,
          "value": 0.0500000007
        },
        {
          "id": 1,
          "value": 1.0
        }
      ],
      "leftModuleId": 69,
      "pos": [
        75,
        1
      ]
    },
    {
      "id": 69,
      "plugin": "Fundamental",
      "version": "1.4.0",
      "model": "VCMixer",
      "params": [
        {
          "id": 0,
          "value": 1.0
        },
        {
          "id": 1,
          "value": 1.0
        },
        {
          "id": 2,
          "value": 1.0
        },
        {
          "id": 3,
          "value": 1.0
        },
        {
          "id": 4,
          "value": 1.0
        }
      ],
      "leftModuleId": 70,
      "rightModuleId": 68,
      "pos": [
        65,
        1
      ]
    },
    {
      "id": 70,
      "plugin": "Fundamental",
      "version": "1.4.0",
      "model": "VCF",
      "params": [
        {
          "id": 0,
          "value": 0.0150000108
        },
        {
          "id": 1,
          "value": 0.5
        },
        {
          "id": 2,
          "value": 0.0
        },
        {
          "id": 3,
          "value": 1.0
        },
        {
          "id": 4,
          "value": 0.0
        }
      ],
      "leftModuleId": 71,
      "rightModuleId": 69,
      "pos": [
        57,
        1
      ]
    },
    {
      "id": 71,
      "plugin": "Fundamental",
      "version": "1.4.0",
      "model": "ADSR",
      "params": [
        {
          "id": 0,
          "value": 0.0
        },
        {
          "id": 1,
          "value": 0.602000177
        },
        {
          "id": 2,
          "value": 0.5
        },
        {
          "id": 3,
          "value": 0.601000071
        }
      ],
      "leftModuleId": 72,
      "rightModuleId": 70,
      "pos": [
        49,
        1
      ]
    },
    {
      "id": 72,
      "plugin": "Fundamental",
      "version": "1.4.0",
      "model": "Quantizer",
      "params": [],
      "leftModuleId": 78,
      "rightModuleId": 71,
      "data": {
        "enabledNotes": [
          false,
          false,
          false,
          false,
          false,
          false,
          true,
          false,
          false,
          true,
          false,
          true
        ]
      },
      "pos": [
        46,
        1
      ]
    },
    {
      "id": 73,
      "plugin": "Fundamental",
      "version": "1.4.0",
      "model": "8vert",
      "params": [
        {
          "id": 0,
          "value": 0.143999994
        },
        {
          "id": 1,
          "value": 0.0
        },
        {
          "id": 2,
          "value": 0.0
        },
        {
          "id": 3,
          "value": 0.0
        },
        {
          "id": 4,
          "value": 0.0
        },
        {
          "id": 5,
          "value": 0.0
        },
        {
          "id": 6,
          "value": 0.0
        },
        {
          "id": 7,
          "value": 0.0
        }
      ],
      "leftModuleId": 74,
      "rightModuleId": 78,
      "pos": [
        35,
        1
      ]
    },
    {
      "id": 74,
      "plugin": "Fundamental",
      "version": "1.4.0",
      "model": "Random",
      "params": [
        {
          "id": 0,
          "value": -8.96578407
        },
        {
          "id": 1,
          "value": 0.0
        },
        {
          "id": 2,
          "value": 1.0
        },
        {
          "id": 3,
          "value": 1.0
        }
      ],
      "leftModuleId": 75,
      "rightModuleId": 73,
      "pos": [
        30,
        1
      ]
    },
    {
      "id": 75,
      "plugin": "Fundamental",
      "version": "1.4.0",
      "model": "LFO",
      "params": [
        {
          "id": 0,
          "value": 1.0
        },
        {
          "id": 1,
          "value": 1.0
        },
        {
          "id": 2,
          "value": 2.0
        },
        {
          "id": 3,
          "value": 0.0
        },
        {
          "id": 4,
          "value": 0.0
        },
        {
          "id": 5,
          "value": 0.99000001
        },
        {
          "id": 6,
          "value": 0.0
        }
      ],
      "leftModuleId": 76,
      "rightModuleId": 74,
      "pos": [
        20,
        1
      ]
    },
    {
      "id": 76,
      "plugin": "Fundamental",
      "version": "1.4.0",
      "model": "VCO",
      "params": [
        {
          "id": 0,
          "value": 1.0
        },
        {
          "id": 1,
          "value": 1.0
        },
        {
          "id": 2,
          "value": -3.00000095
        },
        {
          "id": 3,
          "value": 0.179999828
        },
        {
          "id": 4,
          "value": 0.0
        },
        {
          "id": 5,
          "value": 0.5
        },
        {
          "id": 6,
          "value": 0.0
        }
      ],
      "leftModuleId": 77,
      "rightModuleId": 75,
      "pos": [
        10,
        1
      ]
    },
    {
      "id": 77,
      "plugin": "Fundamental",
      "version": "1.4.0",
      "model": "VCO",
      "params": [
        {
          "id": 0,
          "value": 1.0
        },
        {
          "id": 1,
          "value": 1.0
        },
        {
          "id": 2,
          "value": -14.9999914
        },
        {
          "id": 3,
          "value": 0.0
        },
        {
          "id": 4,
          "value": 0.0
        },
        {
          "id": 5,
          "value": 0.5
        },
        {
          "id": 6,
          "value": 0.0
        }
      ],
      "rightModuleId": 76,
      "pos": [
        0,
        1
      ]
    },
    {
      "id": 78,
      "plugin": "Fundamental",
      "version": "1.4.0",
      "model": "Octave",
      "params": [
        {
          "id": 0,
          "value": 0.0
        }
      ],
      "leftModuleId": 73,
      "rightModuleId": 72,
      "pos": [
        43,
        1
      ]
    },
    {
      "id": 79,
      "plugin": "Fundamental",
      "version": "1.4.0",
      "model": "Octave",
      "params": [
        {
          "id": 0,
          "value": 1.0
        }
      ],
      "leftModuleId": 51,
      "rightModuleId": 50,
      "pos": [
        43,
        0
      ]
    },
    {
      "id": 80,
      "plugin": "Fundamental",
      "version": "1.4.0",
      "model": "Unity",
      "params": [
        {
          "id": 0,
          "value": 0.0
        },
        {
          "id": 1,
          "value": 0.0
        }
      ],
      "rightModuleId": 41,
      "data": {
        "merge": false
      },
      "pos": [
        82,
        0
      ]
    },
    {
      "id": 81,
      "plugin": "Fundamental",
      "version": "1.4.0",
      "model": "VCA-1",
      "params": [
        {
          "id": 0,
          "value": 0.0250000004
        },
        {
          "id": 1,
          "value": 1.0
        }
      ],
      "leftModuleId": 82,
      "pos": [
        75,
        2
      ]
    },
    {
      "id": 82,
      "plugin": "Fundamental",
      "version": "1.4.0",
      "model": "VCMixer",
      "params": [
        {
          "id": 0,
          "value": 1.0
        },
        {
          "id": 1,
          "value": 1.0
        },
        {
          "id": 2,
          "value": 1.0
        },
        {
          "id": 3,
          "value": 1.0
        },
        {
          "id": 4,
          "value": 1.0
        }
      ],
      "leftModuleId": 83,
      "rightModuleId": 81,
      "pos": [
        65,
        2
      ]
    },
    {
      "id": 83,
      "plugin": "Fundamental",
      "version": "1.4.0",
      "model": "VCF",
      "params": [
        {
          "id": 0,
          "value": 0.0
        },
        {
          "id": 1,
          "value": 0.5
        },
        {
          "id": 2,
          "value": 0.0
        },
        {
          "id": 3,
          "value": 1.0
        },
        {
          "id": 4,
          "value": 0.0
        }
      ],
      "leftModuleId": 84,
      "rightModuleId": 82,
      "pos": [
        57,
        2
      ]
    },
    {
      "id": 84,
      "plugin": "Fundamental",
      "version": "1.4.0",
      "model": "ADSR",
      "params": [
        {
          "id": 0,
          "value": 0.5
        },
        {
          "id": 1,
          "value": 0.750500023
        },
        {
          "id": 2,
          "value": 0.718999743
        },
        {
          "id": 3,
          "value": 1.0
        }
      ],
      "leftModuleId": 85,
      "rightModuleId": 83,
      "pos": [
        49,
        2
      ]
    },
    {
      "id": 85,
      "plugin": "Fundamental",
      "version": "1.4.0",
      "model": "Quantizer",
      "params": [],
      "leftModuleId": 86,
      "rightModuleId": 84,
      "data": {
        "enabledNotes": [
          false,
          false,
          false,
          false,
          false,
          false,
          true,
          false,
          false,
          true,
          false,
          true
        ]
      },
      "pos": [
        46,
        2
      ]
    },
    {
      "id": 86,
      "plugin": "Fundamental",
      "version": "1.4.0",
      "model": "Octave",
      "params": [
        {
          "id": 0,
          "value": -1.0
        }
      ],
      "leftModuleId": 87,
      "rightModuleId": 85,
      "pos": [
        43,
        2
      ]
    },
    {
      "id": 87,
      "plugin": "Fundamental",
      "version": "1.4.0",
      "model": "8vert",
      "params": [
        {
          "id": 0,
          "value": 0.143999994
        },
        {
          "id": 1,
          "value": 0.0
        },
        {
          "id": 2,
          "value": 0.0
        },
        {
          "id": 3,
          "value": 0.0
        },
        {
          "id": 4,
          "value": 0.0
        },
        {
          "id": 5,
          "value": 0.0
        },
        {
          "id": 6,
          "value": 0.0
        },
        {
          "id": 7,
          "value": 0.0
        }
      ],
      "leftModuleId": 88,
      "rightModuleId": 86,
      "pos": [
        35,
        2
      ]
    },
    {
      "id": 88,
      "plugin": "Fundamental",
      "version": "1.4.0",
      "model": "Random",
      "params": [
        {
          "id": 0,
          "value": -8.96578407
        },
        {
          "id": 1,
          "value": 0.0689999908
        },
        {
          "id": 2,
          "value": 1.0
        },
        {
          "id": 3,
          "value": 1.0
        }
      ],
      "leftModuleId": 89,
      "rightModuleId": 87,
      "pos": [
        30,
        2
      ]
    },
    {
      "id": 89,
      "plugin": "Fundamental",
      "version": "1.4.0",
      "model": "LFO",
      "params": [
        {
          "id": 0,
          "value": 1.0
        },
        {
          "id": 1,
          "value": 1.0
        },
        {
          "id": 2,
          "value": -2.0
        },
        {
          "id": 3,
          "value": 0.0
        },
        {
          "id": 4,
          "value": 0.0
        },
        {
          "id": 5,
          "value": 0.99000001
        },
        {
          "id": 6,
          "value": 0.0
        }
      ],
      "leftModuleId": 90,
      "rightModuleId": 88,
      "pos": [
        20,
        2
      ]
    },
    {
      "id": 90,
      "plugin": "Fundamental",
      "version": "1.4.0",
      "model": "VCO",
      "params": [
        {
          "id": 0,
          "value": 1.0
        },
        {
          "id": 1,
          "value": 0.0
        },
        {
          "id": 2,
          "value": -3.00000095
        },
        {
          "id": 3,
          "value": 0.179999828
        },
        {
          "id": 4,
          "value": 0.0
        },
        {
          "id": 5,
          "value": 0.5
        },
        {
          "id": 6,
          "value": 0.0
        }
      ],
      "leftModuleId": 91,
      "rightModuleId": 89,
      "pos": [
        10,
        2
      ]
    },
    {
      "id": 91,
      "plugin": "Fundamental",
      "version": "1.4.0",
      "model": "VCO",
      "params": [
        {
          "id": 0,
          "value": 1.0
        },
        {
          "id": 1,
          "value": 0.0
        },
        {
          "id": 2,
          "value": -14.9999914
        },
        {
          "id": 3,
          "value": 0.0
        },
        {
          "id": 4,
          "value": 0.0
        },
        {
          "id": 5,
          "value": 0.5
        },
        {
          "id": 6,
          "value": 0.0
        }
      ],
      "rightModuleId": 90,
      "pos": [
        0,
        2
      ]
    },
    {
      "id": 92,
      "plugin": "NYSTHI",
      "version": "1.0.17",
      "model": "MasterRecorder",
      "params": [
        {
          "id": 0,
          "value": 0.0
        },
        {
          "id": 1,
          "value": 0.0
        },
        {
          "id": 2,
          "value": 1.0
        }
      ],
      "data": {
        "nysthi_id": "MR_CMUGTXkH",
        "wavebits": 9,
        "m_attenuation": 1.0
      },
      "pos": [
        110,
        0
      ]
    }
  ],
  "cables": [
    {
      "id": 134,
      "outputModuleId": 42,
      "outputId": 0,
      "inputModuleId": 45,
      "inputId": 3,
      "color": "#0c8e15"
    },
    {
      "id": 137,
      "outputModuleId": 45,
      "outputId": 0,
      "inputModuleId": 47,
      "inputId": 1,
      "color": "#c9b70e"
    },
    {
      "id": 138,
      "outputModuleId": 46,
      "outputId": 0,
      "inputModuleId": 45,
      "inputId": 0,
      "color": "#0c8e15"
    },
    {
      "id": 132,
      "outputModuleId": 43,
      "outputId": 2,
      "inputModuleId": 42,
      "inputId": 1,
      "color": "#0986ad"
    },
    {
      "id": 133,
      "outputModuleId": 44,
      "outputId": 2,
      "inputModuleId": 42,
      "inputId": 2,
      "color": "#c9b70e"
    },
    {
      "id": 141,
      "outputModuleId": 48,
      "outputId": 3,
      "inputModuleId": 46,
      "inputId": 4,
      "color": "#c9b70e"
    },
    {
      "id": 143,
      "outputModuleId": 50,
      "outputId": 0,
      "inputModuleId": 43,
      "inputId": 0,
      "color": "#0986ad"
    },
    {
      "id": 144,
      "outputModuleId": 50,
      "outputId": 0,
      "inputModuleId": 44,
      "inputId": 0,
      "color": "#c9b70e"
    },
    {
      "id": 140,
      "outputModuleId": 49,
      "outputId": 0,
      "inputModuleId": 51,
      "inputId": 0,
      "color": "#0986ad"
    },
    {
      "id": 146,
      "outputModuleId": 71,
      "outputId": 0,
      "inputModuleId": 70,
      "inputId": 0,
      "color": "#c91847"
    },
    {
      "id": 147,
      "outputModuleId": 69,
      "outputId": 0,
      "inputModuleId": 70,
      "inputId": 3,
      "color": "#0986ad"
    },
    {
      "id": 148,
      "outputModuleId": 70,
      "outputId": 0,
      "inputModuleId": 68,
      "inputId": 1,
      "color": "#c9b70e"
    },
    {
      "id": 149,
      "outputModuleId": 77,
      "outputId": 2,
      "inputModuleId": 69,
      "inputId": 1,
      "color": "#0c8e15"
    },
    {
      "id": 150,
      "outputModuleId": 76,
      "outputId": 2,
      "inputModuleId": 69,
      "inputId": 2,
      "color": "#c91847"
    },
    {
      "id": 151,
      "outputModuleId": 72,
      "outputId": 0,
      "inputModuleId": 77,
      "inputId": 0,
      "color": "#0986ad"
    },
    {
      "id": 152,
      "outputModuleId": 72,
      "outputId": 0,
      "inputModuleId": 76,
      "inputId": 0,
      "color": "#c9b70e"
    },
    {
      "id": 153,
      "outputModuleId": 75,
      "outputId": 3,
      "inputModuleId": 74,
      "inputId": 2,
      "color": "#0c8e15"
    },
    {
      "id": 154,
      "outputModuleId": 74,
      "outputId": 0,
      "inputModuleId": 73,
      "inputId": 0,
      "color": "#c91847"
    },
    {
      "id": 156,
      "outputModuleId": 75,
      "outputId": 3,
      "inputModuleId": 71,
      "inputId": 4,
      "color": "#c9b70e"
    },
    {
      "id": 159,
      "outputModuleId": 78,
      "outputId": 0,
      "inputModuleId": 72,
      "inputId": 0,
      "color": "#c9b70e"
    },
    {
      "id": 158,
      "outputModuleId": 73,
      "outputId": 0,
      "inputModuleId": 78,
      "inputId": 0,
      "color": "#0986ad"
    },
    {
      "id": 145,
      "outputModuleId": 51,
      "outputId": 0,
      "inputModuleId": 79,
      "inputId": 0,
      "color": "#0c8e15"
    },
    {
      "id": 160,
      "outputModuleId": 79,
      "outputId": 0,
      "inputModuleId": 50,
      "inputId": 0,
      "color": "#0c8e15"
    },
    {
      "id": 135,
      "outputModuleId": 47,
      "outputId": 0,
      "inputModuleId": 80,
      "inputId": 0,
      "color": "#c91847"
    },
    {
      "id": 157,
      "outputModuleId": 68,
      "outputId": 0,
      "inputModuleId": 80,
      "inputId": 1,
      "color": "#c91847"
    },
    {
      "id": 164,
      "outputModuleId": 81,
      "outputId": 0,
      "inputModuleId": 80,
      "inputId": 2,
      "color": "#0c8e15"
    },
    {
      "id": 165,
      "outputModuleId": 81,
      "outputId": 0,
      "inputModuleId": 80,
      "inputId": 3,
      "color": "#c91847"
    },
    {
      "id": 166,
      "outputModuleId": 83,
      "outputId": 0,
      "inputModuleId": 81,
      "inputId": 1,
      "color": "#0986ad"
    },
    {
      "id": 167,
      "outputModuleId": 82,
      "outputId": 0,
      "inputModuleId": 83,
      "inputId": 3,
      "color": "#c9b70e"
    },
    {
      "id": 168,
      "outputModuleId": 84,
      "outputId": 0,
      "inputModuleId": 83,
      "inputId": 0,
      "color": "#0c8e15"
    },
    {
      "id": 169,
      "outputModuleId": 91,
      "outputId": 0,
      "inputModuleId": 82,
      "inputId": 1,
      "color": "#c91847"
    },
    {
      "id": 170,
      "outputModuleId": 90,
      "outputId": 0,
      "inputModuleId": 82,
      "inputId": 2,
      "color": "#0986ad"
    },
    {
      "id": 171,
      "outputModuleId": 89,
      "outputId": 3,
      "inputModuleId": 84,
      "inputId": 4,
      "color": "#c9b70e"
    },
    {
      "id": 173,
      "outputModuleId": 88,
      "outputId": 0,
      "inputModuleId": 87,
      "inputId": 0,
      "color": "#c91847"
    },
    {
      "id": 174,
      "outputModuleId": 87,
      "outputId": 0,
      "inputModuleId": 86,
      "inputId": 0,
      "color": "#0986ad"
    },
    {
      "id": 175,
      "outputModuleId": 86,
      "outputId": 0,
      "inputModuleId": 85,
      "inputId": 0,
      "color": "#c9b70e"
    },
    {
      "id": 176,
      "outputModuleId": 85,
      "outputId": 0,
      "inputModuleId": 90,
      "inputId": 0,
      "color": "#0c8e15"
    },
    {
      "id": 177,
      "outputModuleId": 85,
      "outputId": 0,
      "inputModuleId": 91,
      "inputId": 0,
      "color": "#c91847"
    },
    {
      "id": 172,
      "outputModuleId": 89,
      "outputId": 0,
      "inputModuleId": 88,
      "inputId": 2,
      "color": "#0c8e15"
    },
    {
      "id": 142,
      "outputModuleId": 48,
      "outputId": 3,
      "inputModuleId": 49,
      "inputId": 2,
      "color": "#0c8e15"
    },
    {
      "id": 179,
      "outputModuleId": 48,
      "outputId": 3,
      "inputModuleId": 75,
      "inputId": 2,
      "color": "#0c8e15"
    },
    {
      "id": 182,
      "outputModuleId": 80,
      "outputId": 0,
      "inputModuleId": 92,
      "inputId": 0,
      "color": "#c9b70e"
    },
    {
      "id": 183,
      "outputModuleId": 80,
      "outputId": 0,
      "inputModuleId": 92,
      "inputId": 1,
      "color": "#0c8e15"
    },
    {
      "id": 184,
      "outputModuleId": 80,
      "outputId": 0,
      "inputModuleId": 41,
      "inputId": 0,
      "color": "#0986ad"
    },
    {
      "id": 185,
      "outputModuleId": 80,
      "outputId": 0,
      "inputModuleId": 41,
      "inputId": 1,
      "color": "#c9b70e"
    }
  ]
}
