{
  "version": "1.1.6",
  "modules": [
    {
      "id": 1,
      "plugin": "Core",
      "version": "1.1.6",
      "model": "AudioInterface",
      "params": [],
      "data": {
        "audio": {
          "driver": 5,
          "deviceName": "Apple Inc.: MacBook Air Speakers",
          "offset": 0,
          "maxChannels": 8,
          "sampleRate": 44100,
          "blockSize": 256
        }
      },
      "pos": [
        119,
        0
      ]
    },
    {
      "id": 92,
      "plugin": "Fundamental",
      "version": "1.4.0",
      "model": "VCO",
      "params": [
        {
          "id": 0,
          "value": 1.0
        },
        {
          "id": 1,
          "value": 0.0
        },
        {
          "id": 2,
          "value": -37.4936028
        },
        {
          "id": 3,
          "value": 0.0
        },
        {
          "id": 4,
          "value": 0.0
        },
        {
          "id": 5,
          "value": 0.5
        },
        {
          "id": 6,
          "value": 0.100000001
        }
      ],
      "rightModuleId": 94,
      "pos": [
        0,
        0
      ]
    },
    {
      "id": 93,
      "plugin": "Fundamental",
      "version": "1.4.0",
      "model": "VCMixer",
      "params": [
        {
          "id": 0,
          "value": 0.707945764
        },
        {
          "id": 1,
          "value": 0.501187205
        },
        {
          "id": 2,
          "value": 0.501187205
        },
        {
          "id": 3,
          "value": 0.707945764
        },
        {
          "id": 4,
          "value": 0.707945764
        }
      ],
      "pos": [
        110,
        1
      ]
    },
    {
      "id": 94,
      "plugin": "Fundamental",
      "version": "1.4.0",
      "model": "VCO",
      "params": [
        {
          "id": 0,
          "value": 1.0
        },
        {
          "id": 1,
          "value": 0.0
        },
        {
          "id": 2,
          "value": -37.484951
        },
        {
          "id": 3,
          "value": 0.0
        },
        {
          "id": 4,
          "value": 0.0
        },
        {
          "id": 5,
          "value": 0.5
        },
        {
          "id": 6,
          "value": 0.100100003
        }
      ],
      "leftModuleId": 92,
      "pos": [
        10,
        0
      ]
    },
    {
      "id": 96,
      "plugin": "Fundamental",
      "version": "1.4.0",
      "model": "VCF",
      "params": [
        {
          "id": 0,
          "value": 0.615999103
        },
        {
          "id": 1,
          "value": 0.5
        },
        {
          "id": 2,
          "value": 0.948999763
        },
        {
          "id": 3,
          "value": 0.501000047
        },
        {
          "id": 4,
          "value": 0.552999318
        }
      ],
      "pos": [
        37,
        0
      ]
    },
    {
      "id": 97,
      "plugin": "Fundamental",
      "version": "1.4.0",
      "model": "Unity",
      "params": [
        {
          "id": 0,
          "value": 1.0
        },
        {
          "id": 1,
          "value": 0.0
        }
      ],
      "data": {
        "merge": false
      },
      "pos": [
        25,
        0
      ]
    },
    {
      "id": 103,
      "plugin": "NYSTHI",
      "version": "1.0.17",
      "model": "PlateVerb",
      "params": [
        {
          "id": 0,
          "value": 0.699999988
        },
        {
          "id": 1,
          "value": 0.324499428
        },
        {
          "id": 2,
          "value": 0.720999897
        },
        {
          "id": 3,
          "value": 0.0
        },
        {
          "id": 4,
          "value": 0.0
        },
        {
          "id": 5,
          "value": 0.0
        },
        {
          "id": 6,
          "value": 0.0
        },
        {
          "id": 7,
          "value": 1.0
        },
        {
          "id": 8,
          "value": 0.980000019
        },
        {
          "id": 9,
          "value": 0.136500299
        },
        {
          "id": 10,
          "value": 0.844999909
        },
        {
          "id": 11,
          "value": 0.344000489
        },
        {
          "id": 12,
          "value": 0.0
        }
      ],
      "pos": [
        71,
        0
      ]
    },
    {
      "id": 107,
      "plugin": "Fundamental",
      "version": "1.4.0",
      "model": "Unity",
      "params": [
        {
          "id": 0,
          "value": 0.0
        },
        {
          "id": 1,
          "value": 1.0
        }
      ],
      "data": {
        "merge": false
      },
      "pos": [
        50,
        0
      ]
    },
    {
      "id": 112,
      "plugin": "NYSTHI",
      "version": "1.0.17",
      "model": "Ambuance",
      "params": [
        {
          "id": 0,
          "value": 0.0
        },
        {
          "id": 1,
          "value": 0.0
        },
        {
          "id": 2,
          "value": 1.0
        },
        {
          "id": 3,
          "value": 25.0
        },
        {
          "id": 4,
          "value": 19.0
        },
        {
          "id": 5,
          "value": 0.235999942
        },
        {
          "id": 6,
          "value": 0.100000001
        },
        {
          "id": 7,
          "value": -11.0
        },
        {
          "id": 8,
          "value": -9.0
        },
        {
          "id": 9,
          "value": 0.0
        },
        {
          "id": 10,
          "value": 0.0
        },
        {
          "id": 11,
          "value": 2.87999535
        },
        {
          "id": 12,
          "value": 0.0
        },
        {
          "id": 13,
          "value": 0.0
        },
        {
          "id": 14,
          "value": 0.0
        },
        {
          "id": 15,
          "value": 0.0
        },
        {
          "id": 16,
          "value": 0.0
        },
        {
          "id": 17,
          "value": 0.0
        },
        {
          "id": 18,
          "value": 0.0
        },
        {
          "id": 19,
          "value": 0.0
        },
        {
          "id": 20,
          "value": 0.0
        }
      ],
      "data": {
        "m_revonrev": false,
        "m_bypass": false,
        "m_subtract_from_wet": false
      },
      "pos": [
        68,
        1
      ]
    },
    {
      "id": 113,
      "plugin": "AudibleInstruments",
      "version": "1.5.0",
      "model": "Braids",
      "params": [
        {
          "id": 0,
          "value": 0.0
        },
        {
          "id": 1,
          "value": -3.11599922
        },
        {
          "id": 2,
          "value": 0.0
        },
        {
          "id": 3,
          "value": 0.378500193
        },
        {
          "id": 4,
          "value": 0.442999989
        },
        {
          "id": 5,
          "value": 0.222500324
        },
        {
          "id": 6,
          "value": 0.0750000179
        }
      ],
      "rightModuleId": 114,
      "data": {
        "settings": [
          3,
          0,
          0,
          0,
          0,
          0,
          0,
          0,
          0,
          0,
          0,
          0,
          0,
          0,
          0,
          0,
          0,
          0,
          0,
          0
        ],
        "lowCpu": false
      },
      "pos": [
        0,
        1
      ]
    },
    {
      "id": 114,
      "plugin": "AudibleInstruments",
      "version": "1.5.0",
      "model": "Braids",
      "params": [
        {
          "id": 0,
          "value": 0.0
        },
        {
          "id": 1,
          "value": -5.0
        },
        {
          "id": 2,
          "value": 0.0
        },
        {
          "id": 3,
          "value": 0.130500004
        },
        {
          "id": 4,
          "value": 0.0
        },
        {
          "id": 5,
          "value": 0.178999886
        },
        {
          "id": 6,
          "value": 0.806499243
        }
      ],
      "leftModuleId": 113,
      "data": {
        "settings": [
          37,
          0,
          0,
          0,
          0,
          0,
          0,
          0,
          0,
          0,
          0,
          0,
          0,
          0,
          0,
          0,
          0,
          0,
          0,
          0
        ],
        "lowCpu": false
      },
      "pos": [
        16,
        1
      ]
    },
    {
      "id": 115,
      "plugin": "Fundamental",
      "version": "1.4.0",
      "model": "LFO2",
      "params": [
        {
          "id": 0,
          "value": 0.0
        },
        {
          "id": 1,
          "value": 1.0
        },
        {
          "id": 2,
          "value": -8.0
        },
        {
          "id": 3,
          "value": 0.0
        },
        {
          "id": 4,
          "value": 0.5
        }
      ],
      "pos": [
        43,
        1
      ]
    },
    {
      "id": 117,
      "plugin": "Fundamental",
      "version": "1.4.0",
      "model": "LFO2",
      "params": [
        {
          "id": 0,
          "value": 0.0
        },
        {
          "id": 1,
          "value": 1.0
        },
        {
          "id": 2,
          "value": -6.92000008
        },
        {
          "id": 3,
          "value": 0.0
        },
        {
          "id": 4,
          "value": 0.5
        }
      ],
      "pos": [
        56,
        1
      ]
    },
    {
      "id": 131,
      "plugin": "Fundamental",
      "version": "1.4.0",
      "model": "LFO2",
      "params": [
        {
          "id": 0,
          "value": 1.0
        },
        {
          "id": 1,
          "value": 1.0
        },
        {
          "id": 2,
          "value": -4.32192802
        },
        {
          "id": 3,
          "value": 0.0
        },
        {
          "id": 4,
          "value": 0.5
        }
      ],
      "pos": [
        35,
        2
      ]
    },
    {
      "id": 132,
      "plugin": "Fundamental",
      "version": "1.4.0",
      "model": "Delay",
      "params": [
        {
          "id": 0,
          "value": 0.57525748
        },
        {
          "id": 1,
          "value": 0.75
        },
        {
          "id": 2,
          "value": 0.5
        },
        {
          "id": 3,
          "value": 0.5
        }
      ],
      "rightModuleId": 133,
      "pos": [
        97,
        0
      ]
    },
    {
      "id": 133,
      "plugin": "Fundamental",
      "version": "1.4.0",
      "model": "Delay",
      "params": [
        {
          "id": 0,
          "value": 0.580554783
        },
        {
          "id": 1,
          "value": 0.75
        },
        {
          "id": 2,
          "value": 0.5
        },
        {
          "id": 3,
          "value": 0.5
        }
      ],
      "leftModuleId": 132,
      "pos": [
        105,
        0
      ]
    },
    {
      "id": 134,
      "plugin": "NYSTHI",
      "version": "1.0.17",
      "model": "MasterRecorder",
      "params": [
        {
          "id": 0,
          "value": 0.0
        },
        {
          "id": 1,
          "value": 0.0
        },
        {
          "id": 2,
          "value": 1.0
        }
      ],
      "data": {
        "nysthi_id": "MR_CMUGTXkH",
        "wavebits": 9,
        "m_attenuation": 1.0
      },
      "pos": [
        137,
        0
      ]
    }
  ],
  "cables": [
    {
      "id": 199,
      "outputModuleId": 92,
      "outputId": 3,
      "inputModuleId": 97,
      "inputId": 0,
      "color": "#c9b70e"
    },
    {
      "id": 200,
      "outputModuleId": 94,
      "outputId": 3,
      "inputModuleId": 97,
      "inputId": 2,
      "color": "#0c8e15"
    },
    {
      "id": 201,
      "outputModuleId": 97,
      "outputId": 1,
      "inputModuleId": 96,
      "inputId": 3,
      "color": "#c91847"
    },
    {
      "id": 222,
      "outputModuleId": 96,
      "outputId": 0,
      "inputModuleId": 107,
      "inputId": 0,
      "color": "#c9b70e"
    },
    {
      "id": 257,
      "outputModuleId": 107,
      "outputId": 0,
      "inputModuleId": 103,
      "inputId": 0,
      "color": "#0986ad"
    },
    {
      "id": 261,
      "outputModuleId": 107,
      "outputId": 0,
      "inputModuleId": 103,
      "inputId": 1,
      "color": "#0986ad"
    },
    {
      "id": 275,
      "outputModuleId": 115,
      "outputId": 0,
      "inputModuleId": 113,
      "inputId": 3,
      "color": "#0986ad"
    },
    {
      "id": 277,
      "outputModuleId": 113,
      "outputId": 0,
      "inputModuleId": 107,
      "inputId": 6,
      "color": "#0c8e15"
    },
    {
      "id": 278,
      "outputModuleId": 114,
      "outputId": 0,
      "inputModuleId": 107,
      "inputId": 8,
      "color": "#c91847"
    },
    {
      "id": 290,
      "outputModuleId": 117,
      "outputId": 0,
      "inputModuleId": 113,
      "inputId": 4,
      "color": "#c9b70e"
    },
    {
      "id": 292,
      "outputModuleId": 117,
      "outputId": 0,
      "inputModuleId": 96,
      "inputId": 0,
      "color": "#c91847"
    },
    {
      "id": 305,
      "outputModuleId": 107,
      "outputId": 2,
      "inputModuleId": 112,
      "inputId": 0,
      "color": "#c9b70e"
    },
    {
      "id": 306,
      "outputModuleId": 107,
      "outputId": 2,
      "inputModuleId": 112,
      "inputId": 1,
      "color": "#0c8e15"
    },
    {
      "id": 288,
      "outputModuleId": 115,
      "outputId": 0,
      "inputModuleId": 114,
      "inputId": 3,
      "color": "#0c8e15"
    },
    {
      "id": 334,
      "outputModuleId": 131,
      "outputId": 0,
      "inputModuleId": 94,
      "inputId": 3,
      "color": "#0986ad"
    },
    {
      "id": 335,
      "outputModuleId": 131,
      "outputId": 0,
      "inputModuleId": 92,
      "inputId": 3,
      "color": "#c9b70e"
    },
    {
      "id": 338,
      "outputModuleId": 93,
      "outputId": 0,
      "inputModuleId": 97,
      "inputId": 7,
      "color": "#0c8e15"
    },
    {
      "id": 259,
      "outputModuleId": 103,
      "outputId": 0,
      "inputModuleId": 93,
      "inputId": 1,
      "color": "#0c8e15"
    },
    {
      "id": 260,
      "outputModuleId": 103,
      "outputId": 1,
      "inputModuleId": 93,
      "inputId": 2,
      "color": "#c91847"
    },
    {
      "id": 265,
      "outputModuleId": 112,
      "outputId": 1,
      "inputModuleId": 133,
      "inputId": 4,
      "color": "#0986ad"
    },
    {
      "id": 264,
      "outputModuleId": 112,
      "outputId": 0,
      "inputModuleId": 132,
      "inputId": 4,
      "color": "#c91847"
    },
    {
      "id": 341,
      "outputModuleId": 132,
      "outputId": 0,
      "inputModuleId": 93,
      "inputId": 3,
      "color": "#0c8e15"
    },
    {
      "id": 342,
      "outputModuleId": 133,
      "outputId": 0,
      "inputModuleId": 93,
      "inputId": 4,
      "color": "#c91847"
    },
    {
      "id": 340,
      "outputModuleId": 97,
      "outputId": 3,
      "inputModuleId": 1,
      "inputId": 1,
      "color": "#0986ad"
    },
    {
      "id": 343,
      "outputModuleId": 97,
      "outputId": 3,
      "inputModuleId": 1,
      "inputId": 0,
      "color": "#0986ad"
    },
    {
      "id": 345,
      "outputModuleId": 117,
      "outputId": 0,
      "inputModuleId": 103,
      "inputId": 8,
      "color": "#c9b70e"
    },
    {
      "id": 346,
      "outputModuleId": 117,
      "outputId": 0,
      "inputModuleId": 112,
      "inputId": 7,
      "color": "#0c8e15"
    },
    {
      "id": 347,
      "outputModuleId": 117,
      "outputId": 0,
      "inputModuleId": 132,
      "inputId": 2,
      "color": "#0986ad"
    },
    {
      "id": 348,
      "outputModuleId": 117,
      "outputId": 0,
      "inputModuleId": 133,
      "inputId": 2,
      "color": "#c9b70e"
    },
    {
      "id": 349,
      "outputModuleId": 96,
      "outputId": 0,
      "inputModuleId": 107,
      "inputId": 2,
      "color": "#c91847"
    },
    {
      "id": 350,
      "outputModuleId": 1,
      "outputId": 0,
      "inputModuleId": 134,
      "inputId": 0,
      "color": "#c91847"
    },
    {
      "id": 351,
      "outputModuleId": 1,
      "outputId": 1,
      "inputModuleId": 134,
      "inputId": 1,
      "color": "#0986ad"
    }
  ]
}